<svg width="1200" height="64" viewBox="0 0 1200 64" fill="none" xmlns="http://www.w3.org/2000/svg">
<line y1="31" x2="1200" y2="31" stroke="black" stroke-width="2"/>
<path d="M601.574 32.7111C601.574 41.205 599.551 48.8459 596.331 54.3294C593.098 59.8363 588.777 63 584.204 63C579.631 63 575.31 59.8363 572.077 54.3294C568.857 48.8459 566.834 41.205 566.834 32.7111C566.834 24.2173 568.857 16.5763 572.077 11.0928C575.31 5.58594 579.631 2.42224 584.204 2.42224C588.777 2.42224 593.098 5.58594 596.331 11.0928C599.551 16.5763 601.574 24.2173 601.574 32.7111Z" fill="white" stroke="black" stroke-width="2"/>
<path d="M632.863 31.2889C632.863 39.7827 630.839 47.4237 627.62 52.9072C624.387 58.4141 620.065 61.5778 615.493 61.5778C610.92 61.5778 606.598 58.4141 603.365 52.9072C600.146 47.4237 598.122 39.7827 598.122 31.2889C598.122 22.795 600.146 15.1541 603.365 9.67061C606.598 4.1637 610.92 1 615.493 1C620.065 1 624.387 4.1637 627.62 9.67061C630.839 15.1541 632.863 22.795 632.863 31.2889Z" fill="white" stroke="black" stroke-width="2"/>
<ellipse cx="587.048" cy="44.9422" rx="7.11111" ry="12.0889" fill="black"/>
<ellipse cx="618.337" cy="44.9422" rx="7.11111" ry="12.0889" fill="black"/>
</svg>
