<svg width="63" height="70" viewBox="0 0 63 70" fill="none" xmlns="http://www.w3.org/2000/svg">
<mask id="mask0_698_943" style="mask-type:luminance" maskUnits="userSpaceOnUse" x="0" y="0" width="63" height="60">
<path d="M0 0H62.7428V59.4202H0V0Z" fill="white"/>
</mask>
<g mask="url(#mask0_698_943)">
<path d="M61.6915 18.2665L32.5427 0.351102C31.8272 -0.0880625 30.9197 -0.0880625 30.2048 0.351102L1.05835 18.2665C0.398715 18.6742 -0.00598145 19.3938 -0.00598145 20.1699V57.1459C-0.00598145 58.3784 0.994171 59.3786 2.22668 59.3786C3.45979 59.3786 4.45994 58.3784 4.45994 57.1459V21.4197L31.3737 4.87645L58.2905 21.4197V57.1459C58.2905 58.3784 59.2907 59.3786 60.5238 59.3786C61.7563 59.3786 62.7564 58.3784 62.7564 57.1459V20.1699C62.7564 19.3938 62.3517 18.6742 61.6915 18.2665Z" fill="#FFA800"/>
</g>
<path d="M35.2567 66.3489V27.5836C35.2567 26.087 34.0434 24.8738 32.5468 24.8738C31.0502 24.8738 29.8369 26.087 29.8369 27.5836V60.7871C29.8369 62.7468 28.2898 64.357 26.3317 64.4353L18.427 64.7515H10.4971C9.04774 64.7515 7.8728 65.9265 7.8728 67.3758C7.8728 68.8252 9.04774 70.0001 10.4971 70.0001H31.6055C33.622 70.0001 35.2567 68.3654 35.2567 66.3489Z" fill="white"/>
</svg>
